<?xml version="1.0" ?><svg fill="none" height="64" viewBox="0 0 64 64" width="64" xmlns="http://www.w3.org/2000/svg"><path clip-rule="evenodd" d="M39.0455 23.0455C39.0455 26.9366 35.8911 30.0909 32 30.0909C28.1089 30.0909 24.9546 26.9366 24.9546 23.0455C24.9546 19.1544 28.1089 16 32 16C35.8911 16 39.0455 19.1544 39.0455 23.0455ZM36.0455 23.0455C36.0455 25.2797 34.2343 27.0909 32 27.0909C29.7658 27.0909 27.9546 25.2797 27.9546 23.0455C27.9546 20.8112 29.7658 19 32 19C34.2343 19 36.0455 20.8112 36.0455 23.0455Z" fill="black" fill-rule="evenodd"/><path clip-rule="evenodd" d="M32 32.3485C23.5692 32.3485 16.6145 38.6586 15.5975 46.8144C15.5443 47.2412 15.6769 47.6704 15.9616 47.9929C16.2463 48.3153 16.6558 48.5 17.086 48.5H46.914C47.3442 48.5 47.7536 48.3153 48.0384 47.9929C48.3231 47.6704 48.4557 47.2412 48.4025 46.8144C47.3855 38.6586 40.4308 32.3485 32 32.3485ZM32 35.3485C38.3054 35.3485 43.6051 39.6628 45.1053 45.5H18.8946C20.3948 39.6628 25.6945 35.3485 32 35.3485Z" fill="black" fill-rule="evenodd"/></svg>