<?xml version="1.0" ?><svg fill="none" height="64" viewBox="0 0 64 64" width="64" xmlns="http://www.w3.org/2000/svg"><path d="M19 25.5C18.1716 25.5 17.5 26.1716 17.5 27C17.5 27.8284 18.1716 28.5 19 28.5H23C23.8284 28.5 24.5 27.8284 24.5 27C24.5 26.1716 23.8284 25.5 23 25.5H19Z" fill="black"/><path clip-rule="evenodd" d="M11.5 24.4286C11.5 21.9433 13.5147 19.9286 16 19.9286H36.4286C38.9139 19.9286 40.9286 21.9433 40.9286 24.4286V39.5714C40.9286 42.0567 38.9139 44.0714 36.4286 44.0714H16C13.5147 44.0714 11.5 42.0567 11.5 39.5714V24.4286ZM16 22.9286C15.1716 22.9286 14.5 23.6001 14.5 24.4286V39.5714C14.5 40.3998 15.1716 41.0714 16 41.0714H36.4286C37.257 41.0714 37.9286 40.3998 37.9286 39.5714V24.4286C37.9286 23.6001 37.257 22.9286 36.4286 22.9286H16Z" fill="black" fill-rule="evenodd"/><path d="M42.4286 36.9519L49.1354 41.6829C49.5932 42.0058 50.1929 42.0467 50.6903 41.7889C51.1878 41.531 51.5 41.0174 51.5 40.4572V23.5429C51.5 22.9826 51.1878 22.469 50.6903 22.2111C50.1929 21.9533 49.5932 21.9942 49.1354 22.3171L42.4286 27.0482V30.7195L48.5 26.4366V37.5634L42.4286 33.2806V36.9519Z" fill="black"/></svg>