<?xml version="1.0" ?><svg fill="none" height="64" viewBox="0 0 64 64" width="64" xmlns="http://www.w3.org/2000/svg"><path clip-rule="evenodd" d="M29.4382 21.5475C26.7071 18.8175 22.279 18.8175 19.548 21.5475C16.8173 24.2771 16.8173 28.7024 19.548 31.432L32 43.8791L44.452 31.432C47.1827 28.7024 47.1827 24.2771 44.452 21.5475C41.721 18.8175 37.2929 18.8175 34.5618 21.5475L33.0605 23.0482C32.4747 23.6338 31.5253 23.6338 30.9395 23.0482L29.4382 21.5475ZM17.4271 19.4257C21.3296 15.5248 27.6566 15.5248 31.5591 19.4257L32 19.8665L32.4409 19.4257C36.3434 15.5248 42.6704 15.5248 46.5729 19.4257C50.4757 23.327 50.4757 29.6525 46.5729 33.5538L33.0605 47.0609C32.4747 47.6464 31.5253 47.6464 30.9395 47.0609L17.4271 33.5538C13.5243 29.6525 13.5243 23.327 17.4271 19.4257Z" fill="black" fill-rule="evenodd"/></svg>