<svg height="139" style="enable-background:new 0 0 121 139" width="121" xml:space="preserve" xmlns="http://www.w3.org/2000/svg"><style>.st0{fill:#ef3e42}.st1,.st3{fill:#fff}.st3{fill-rule:evenodd;clip-rule:evenodd}</style><path d="M75 106.6c-10.6 0-20.6-4.1-28.1-11.6S35.3 77.5 35.3 66.9c0-10.6 4.1-20.6 11.6-28.1S64.4 27.2 75 27.2c10.6 0 20.6 4.1 28.1 11.6a39.77 39.77 0 0 1 0 56.2A39.48 39.48 0 0 1 75 106.6zm0-67.8c-7.5 0-14.6 2.9-19.9 8.2-11 11-11 28.8 0 39.8C60.4 92.1 67.5 95 75 95a27.99 27.99 0 0 0 28.1-28.1A27.99 27.99 0 0 0 75 38.8zM7.6 123.4l29.8-29.8a47.23 47.23 0 0 0 10.9 10.9l-29.8 29.8-10.9-10.9z"/><path id="_x3C_Slice_x3E__100_" style="fill:none" d="M0 0h121v139H0z"/></svg>