<?xml version="1.0" ?><svg fill="none" height="64" viewBox="0 0 64 64" width="64" xmlns="http://www.w3.org/2000/svg"><path d="M21.5 22C22.3284 22 23 21.3284 23 20.5C23 19.6716 22.3284 19 21.5 19C20.6716 19 20 19.6716 20 20.5C20 21.3284 20.6716 22 21.5 22Z" fill="black"/><path d="M19 20.5C19 21.3284 18.3284 22 17.5 22C16.6716 22 16 21.3284 16 20.5C16 19.6716 16.6716 19 17.5 19C18.3284 19 19 19.6716 19 20.5Z" fill="black"/><path d="M25.5 22C26.3284 22 27 21.3284 27 20.5C27 19.6716 26.3284 19 25.5 19C24.6716 19 24 19.6716 24 20.5C24 21.3284 24.6716 22 25.5 22Z" fill="black"/><path clip-rule="evenodd" d="M11.5 16C11.5 15.1716 12.1716 14.5 13 14.5H51C51.8284 14.5 52.5 15.1716 52.5 16V48C52.5 48.8284 51.8284 49.5 51 49.5H13C12.1716 49.5 11.5 48.8284 11.5 48V16ZM14.5 17.5H49.5V23.5H14.5V17.5ZM49.5 26.5H14.5V46.5H49.5V26.5Z" fill="black" fill-rule="evenodd"/></svg>