<?xml version="1.0" ?><svg fill="none" height="64" viewBox="0 0 64 64" width="64" xmlns="http://www.w3.org/2000/svg"><path clip-rule="evenodd" d="M39 32C39 35.866 35.866 39 32 39C28.134 39 25 35.866 25 32C25 28.134 28.134 25 32 25C35.866 25 39 28.134 39 32ZM36 32C36 34.2091 34.2091 36 32 36C29.7909 36 28 34.2091 28 32C28 29.7909 29.7909 28 32 28C34.2091 28 36 29.7909 36 32Z" fill="black" fill-rule="evenodd"/><path clip-rule="evenodd" d="M44.0667 22.0722C43.8999 17.1124 38.6925 13.8996 34.2932 16.3124L33.6935 16.6413C32.6331 17.2228 31.3669 17.2228 30.3065 16.6413L29.7068 16.3124C25.3075 13.8996 20.1001 17.1124 19.9333 22.0722L19.9098 22.7721C19.8667 24.0547 19.2081 25.2123 18.1822 25.8727L17.606 26.2436C13.4647 28.9096 13.4647 35.0904 17.606 37.7564L18.1822 38.1273C19.2081 38.7877 19.8667 39.9453 19.9098 41.228L19.9333 41.9278C20.1001 46.8876 25.3075 50.1004 29.7068 47.6876L30.3065 47.3587C31.3669 46.7772 32.6331 46.7772 33.6935 47.3587L34.2932 47.6876C38.6925 50.1004 43.8999 46.8876 44.0667 41.9278L44.0902 41.2279C44.1333 39.9453 44.7919 38.7877 45.8178 38.1273L46.394 37.7564C50.5353 35.0904 50.5353 28.9096 46.394 26.2436L45.8178 25.8727C44.7919 25.2123 44.1333 24.0547 44.0902 22.7721L44.0667 22.0722ZM35.7359 18.9427C38.0477 17.6748 40.9718 19.3015 41.0684 22.173L41.0919 22.8729C41.1672 25.1137 42.3189 27.1882 44.194 28.3953L44.7701 28.7662C47.0766 30.251 47.0766 33.749 44.7701 35.2338L44.194 35.6047C42.3189 36.8118 41.1672 38.8863 41.0919 41.1272L41.0684 41.827C40.9718 44.6985 38.0477 46.3252 35.7359 45.0573L35.1362 44.7284C33.1772 43.6539 30.8229 43.6539 28.8638 44.7284L28.2641 45.0573C25.9523 46.3252 23.0282 44.6985 22.9316 41.827L22.9081 41.1272C22.8328 38.8863 21.6811 36.8118 19.806 35.6047L19.2299 35.2338C16.9234 33.749 16.9234 30.251 19.2299 28.7662L19.806 28.3953C21.6811 27.1882 22.8328 25.1137 22.9081 22.8728L22.9316 22.173C23.0282 19.3015 25.9523 17.6748 28.2641 18.9427L28.8638 19.2716C30.8228 20.3461 33.1771 20.3461 35.1362 19.2716L35.7359 18.9427Z" fill="black" fill-rule="evenodd"/></svg>